<svg preserveAspectRatio="none" width="100%" height="100%" overflow="visible" style="display: block;" viewBox="0 0 18 17.1" fill="none" xmlns="http://www.w3.org/2000/svg">
<path id="calendar" d="M6.075 0C6.19926 0 6.3 0.100736 6.3 0.225V1.8H11.7V0.225C11.7 0.100736 11.8007 0 11.925 0H13.275C13.3993 0 13.5 0.100736 13.5 0.225V1.8H15.3C16.7912 1.8 18 3.00883 18 4.5V14.4C18 15.8912 16.7912 17.1 15.3 17.1H2.7C1.20883 17.1 0 15.8912 0 14.4V4.5C0 3.00883 1.20883 1.8 2.7 1.8H4.5V0.225C4.5 0.100736 4.60074 0 4.725 0H6.075ZM11.7 3.6H6.3V5.175C6.3 5.29926 6.19926 5.4 6.075 5.4H4.725C4.60074 5.4 4.5 5.29926 4.5 5.175V3.6H2.7C2.20294 3.6 1.8 4.00294 1.8 4.5V6.75H16.2V4.5C16.2 4.00294 15.7971 3.6 15.3 3.6H13.5V5.175C13.5 5.29926 13.3993 5.4 13.275 5.4H11.925C11.8007 5.4 11.7 5.29926 11.7 5.175V3.6ZM1.8 8.55V14.4C1.8 14.8971 2.20294 15.3 2.7 15.3H15.3C15.7971 15.3 16.2 14.8971 16.2 14.4V8.55H1.8Z" fill="var(--fill-0, black)"/>
</svg>
