<svg preserveAspectRatio="none" width="100%" height="100%" overflow="visible" style="display: block;" viewBox="0 0 24 24" fill="none" xmlns="http://www.w3.org/2000/svg">
<g id="Icon/Trips">
<path id="Union" d="M14.2509 3.00039C15.7416 3.00081 16.95 4.20977 16.9501 5.70059V6.6H18.3007C19.7914 6.60042 20.9998 7.80938 20.9999 9.3002V18.3002C20.9997 19.7909 19.7914 21 18.3007 21.0004H5.7001C4.20915 21.0003 3.00011 19.7911 2.9999 18.3002V9.3002C3.00001 7.80918 4.20908 6.60011 5.7001 6.6H7.9501V5.70059C7.9502 4.20957 9.15928 3.0005 10.6503 3.00039H14.2509ZM4.80068 18.3002C4.80089 18.797 5.20326 19.2005 5.7001 19.2006H18.3007C18.7973 19.2002 19.1999 18.7968 19.2001 18.3002V12.3715L13.3173 14.4486C12.7651 14.6435 12.1638 14.6532 11.6054 14.477L4.80068 12.3275V18.3002ZM5.7001 8.40078C5.2032 8.40089 4.80079 8.80329 4.80068 9.3002V10.4398L12.1474 12.7602C12.3332 12.8187 12.5338 12.8161 12.7177 12.7514L19.2001 10.4633V9.3002C19.2 8.80349 18.7973 8.4012 18.3007 8.40078H5.7001ZM10.6503 4.80117C10.1534 4.80128 9.75098 5.20368 9.75088 5.70059V6.6H15.1503V5.70059C15.1502 5.20388 14.7475 4.80159 14.2509 4.80117H10.6503Z" fill="var(--fill-0, black)"/>
</g>
</svg>
