<svg preserveAspectRatio="none" width="100%" height="100%" overflow="visible" style="display: block;" viewBox="0 0 33.8398 20.9014" fill="none" xmlns="http://www.w3.org/2000/svg">
<path id="Union" d="M16.4229 0C19.8309 5.96479e-05 22.857 1.63271 24.7646 4.15723C25.2835 4.04306 25.8228 3.98145 26.376 3.98145C30.4984 3.98164 33.8398 7.32378 33.8398 11.4463C33.8398 15.5688 30.4985 18.9109 26.376 18.9111C25.2992 18.9111 24.2762 18.6809 23.3516 18.2705C21.5071 19.9061 19.082 20.9013 16.4229 20.9014C13.2855 20.9014 10.4732 19.5171 8.55762 17.3281C7.77524 17.7045 6.89797 17.916 5.97168 17.916C2.67387 17.9158 0.000202271 15.2421 0 11.9443C0 8.64635 2.67375 5.97287 5.97168 5.97266C6.30213 5.97266 6.62653 6.00014 6.94238 6.05176C8.60329 2.4786 12.223 0 16.4229 0Z" fill="url(#paint0_linear_130_610)"/>
<defs>
<linearGradient id="paint0_linear_130_610" x1="16.9199" y1="0" x2="16.9199" y2="20.9014" gradientUnits="userSpaceOnUse">
<stop stop-color="#FFF48F"/>
<stop offset="1" stop-color="#FFFEEA" stop-opacity="0"/>
</linearGradient>
</defs>
</svg>
